<?xml version="1.0" encoding="UTF-8" standalone="no"?>
<svg width="243px" height="227px" viewBox="0 0 243 227" version="1.1" xmlns="http://www.w3.org/2000/svg" xmlns:xlink="http://www.w3.org/1999/xlink">
    <!-- Generator: Sketch 3.8.2 (29753) - http://www.bohemiancoding.com/sketch -->
    <title>Shape</title>
    <desc>Created with Sketch.</desc>
    <defs></defs>
    <g id="Page-1" stroke="none" stroke-width="1" fill="none" fill-rule="evenodd">
        <g id="feed-like-icon" fill="#E91E63">
            <path d="M121.182174,226.820312 C118.905339,226.820312 116.731939,225.87174 115.183063,224.203067 L18.5125574,120.01076 C18.4876812,119.983921 18.4628048,119.95708 18.4385832,119.93024 C6.70418336,106.937625 0.242244102,89.7193158 0.242244102,71.4463839 C0.242244102,53.1727975 6.70418336,35.9551432 18.4385832,22.9631823 L19.9075926,21.3370596 C31.8521315,8.11270195 47.8004412,0.829191054 64.8151573,0.829191054 C81.8298734,0.829191054 97.7788376,8.11270195 109.724031,21.3377143 L121.182174,34.0246135 L132.640316,21.338369 C144.584855,8.11335659 160.533164,0.829845693 177.548535,0.829845693 C194.563905,0.829845693 210.512216,8.11335659 222.457409,21.3390235 L223.924455,22.9612184 C235.660818,35.9564526 242.122758,53.1741067 242.122758,71.4470386 C242.122758,89.7199705 235.660163,106.938279 223.926418,119.93024 C223.902197,119.95839 223.877321,119.985229 223.852444,120.01207 L127.181284,224.204375 C125.632408,225.871087 123.459007,226.820312 121.182174,226.820312 L121.182174,226.820312 L121.182174,226.820312 Z" id="Shape"></path>
        </g>
    </g>
</svg>